<?xml version="1.0" encoding="UTF-8" standalone="no"?>
<svg
   width="612"
   height="792"
   xml:space="preserve"
   version="1.1"
   id="svg4"
   sodipodi:docname="logo.svg"
   inkscape:version="1.3 (0e150ed, 2023-07-21)"
   xmlns:inkscape="http://www.inkscape.org/namespaces/inkscape"
   xmlns:sodipodi="http://sodipodi.sourceforge.net/DTD/sodipodi-0.dtd"
   xmlns="http://www.w3.org/2000/svg"
   xmlns:svg="http://www.w3.org/2000/svg"><defs
     id="defs4" /><sodipodi:namedview
     id="namedview4"
     pagecolor="#ffffff"
     bordercolor="#666666"
     borderopacity="1.0"
     inkscape:showpageshadow="2"
     inkscape:pageopacity="0.0"
     inkscape:pagecheckerboard="0"
     inkscape:deskcolor="#d1d1d1"
     showgrid="false"
     inkscape:zoom="1.0808081"
     inkscape:cx="305.78972"
     inkscape:cy="396"
     inkscape:window-width="1392"
     inkscape:window-height="1027"
     inkscape:window-x="0"
     inkscape:window-y="25"
     inkscape:window-maximized="0"
     inkscape:current-layer="svg4" /><path
     fill="#98C8FF"
     d="M307.395 693.432a45.12 45.12 0 0 1-22.301-5.909L65.683 562.482c-15.106-8.607-24.492-24.758-24.492-42.148V274.249c0-17.329 9.336-33.452 24.363-42.075l218.123-127.576a45.17 45.17 0 0 1 22.51-6.028 45.085 45.085 0 0 1 22.444 5.991L546.473 229.79c15.01 8.63 24.333 24.743 24.333 42.061v248.606c0 17.286-9.303 33.392-24.278 42.025L329.892 687.41a45.074 45.074 0 0 1-22.497 6.022z"
     id="path1"
     style="fill:#ffffff;fill-opacity:1" /><path
     fill="#0A0E13"
     d="M540.324 551.723 323.69 676.651a32.618 32.618 0 0 1-32.444.083L71.833 551.693a36.09 36.09 0 0 1-18.223-31.359V274.249a36.087 36.087 0 0 1 18.127-31.304l218.209-127.627a32.619 32.619 0 0 1 32.493.013l217.842 125.23a36.095 36.095 0 0 1 18.106 31.291V520.46a36.085 36.085 0 0 1-18.063 31.263z"
     id="path2" /><g
     fill="#11171F"
     id="g3"
     style="fill:#1f2b02;fill-opacity:1"><path
       d="M558.389 368.111V344.65H53.612v23.461h80.147v71.392H53.612v23.461h175.001v144.214H169.2l41.166 23.462h29.973c3.088 0 6.111-1.252 8.296-3.438s3.437-5.205 3.437-8.296V451.233c0-3.091-1.252-6.11-3.437-8.296a11.806 11.806 0 0 0-8.296-3.436H157.22V368.11h305.599v71.392h-81.687a11.806 11.806 0 0 0-8.296 3.436 11.805 11.805 0 0 0-3.438 8.296V618.91c0 3.088 1.252 6.111 3.438 8.296a11.804 11.804 0 0 0 8.296 3.438h22.341l40.683-23.461h-51.295V462.967H558.393v-23.461h-72.109v-71.392h72.106l-.001-.003zM213.661 270.041h190.753c3.089 0 6.111-1.251 8.297-3.436a11.81 11.81 0 0 0 3.437-8.296v-89.113l-23.461-13.488v90.872H225.391v-93.504l-23.462 13.721v91.514c0 3.088 1.252 6.109 3.438 8.296a11.808 11.808 0 0 0 8.294 3.434z"
       id="path3"
       style="fill:#1f2b02;fill-opacity:1" /></g><path
     fill="#2A71C9"
     d="M281.924 170.05h49.898v459.876h-49.898z"
     id="path4"
     style="fill:#8dc103;fill-opacity:1" /></svg>
